<svg width="524" height="253" viewBox="0 0 524 253" fill="none" xmlns="http://www.w3.org/2000/svg">
<path d="M262.165 18.3378L251.563 0L272.767 9.26866e-07L262.165 18.3378Z" fill="url(#paint0_linear_1_268)"/>
<path d="M273.51 24.7251L283.967 6.63458L294.446 24.7251H273.51Z" fill="url(#paint1_linear_1_268)"/>
<path d="M305.79 16.9161L296.426 0.721152L315.155 0.721153L305.79 16.9161Z" fill="url(#paint2_linear_1_268)"/>
<path d="M218.519 17.7815L208.412 0.267854L228.647 0.267855L218.519 17.7815Z" fill="url(#paint3_linear_1_268)"/>
<path d="M229.265 25.0754L240.342 5.93403L251.398 25.0754H229.265Z" fill="url(#paint4_linear_1_268)"/>
<path d="M283.967 57.4241L272.21 37.0877L295.745 37.0877L283.967 57.4241Z" fill="url(#paint5_linear_1_268)"/>
<path d="M318.435 23.9834L327.613 8.11809L336.792 23.9834L318.435 23.9834Z" fill="url(#paint6_linear_1_268)"/>
<path d="M349.436 15.0823L341.66 1.62774L357.213 1.62774L349.436 15.0823Z" fill="url(#paint7_linear_1_268)"/>
<path d="M174.894 15.412L166.829 1.4629L182.959 1.4629L174.894 15.412Z" fill="url(#paint8_linear_1_268)"/>
<path d="M187.311 24.107L196.717 7.87083L206.102 24.107L187.311 24.107Z" fill="url(#paint9_linear_1_268)"/>
<path d="M240.342 57.795L228.255 36.9023H252.429L240.342 57.795Z" fill="url(#paint10_linear_1_268)"/>
<path d="M249.129 63.9557L262.165 41.4146L275.18 63.9557H249.129Z" fill="url(#paint11_linear_1_268)"/>
<path d="M294.054 63.2139L305.79 42.8981L317.527 63.2139H294.054Z" fill="url(#paint12_linear_1_268)"/>
<path d="M327.613 55.2813L317.692 38.1385H337.514L327.613 55.2813Z" fill="url(#paint13_linear_1_268)"/>
<path d="M364.762 22.4381L371.239 11.2087L377.736 22.4381L364.762 22.4381Z" fill="url(#paint14_linear_1_268)"/>
<path d="M393.062 11.7032L388.215 3.3173L397.909 3.3173L393.062 11.7032Z" fill="url(#paint15_linear_1_268)"/>
<path d="M131.248 11.0645L126.957 3.62635L135.558 3.62635L131.248 11.0645Z" fill="url(#paint16_linear_1_268)"/>
<path d="M146.759 22.335L153.071 11.4148L159.382 22.335H146.759Z" fill="url(#paint17_linear_1_268)"/>
<path d="M196.717 55.0959L186.96 38.2415H206.452L196.717 55.0959Z" fill="url(#paint18_linear_1_268)"/>
<path d="M206.968 63.1109L218.519 43.1248L230.07 63.1109H206.968Z" fill="url(#paint19_linear_1_268)"/>
<path d="M262.165 98.5297L247.479 73.1452H276.831L262.165 98.5297Z" fill="url(#paint20_linear_1_268)"/>
<path d="M268.724 103.001L283.967 76.5861L299.231 103.001H268.724Z" fill="url(#paint21_linear_1_268)"/>
<path d="M305.79 97.0462L292.424 73.9076H319.177L305.79 97.0462Z" fill="url(#paint22_linear_1_268)"/>
<path d="M340.794 61.4214L349.436 46.4833L358.058 61.4214H340.794Z" fill="url(#paint23_linear_1_268)"/>
<path d="M371.239 51.4489L364.659 40.0547H377.839L371.239 51.4489Z" fill="url(#paint24_linear_1_268)"/>
<path d="M411.688 20.5425L414.885 14.9999L418.082 20.5425H411.688Z" fill="url(#paint25_linear_1_268)"/>
<path d="M436.687 8.26233L434.831 5.04806H438.564L436.687 8.26233Z" fill="url(#paint26_linear_1_268)"/>
<path d="M87.6221 8.55077L85.4976 4.90381H89.7261L87.6221 8.55077Z" fill="url(#paint27_linear_1_268)"/>
<path d="M106.454 20.4188L109.445 15.2472L112.415 20.4188H106.454Z" fill="url(#paint28_linear_1_268)"/>
<path d="M153.071 50.7483L147.089 40.4256H159.052L153.071 50.7483Z" fill="url(#paint29_linear_1_268)"/>
<path d="M167.055 60.9681L174.894 47.4105L182.711 60.9681L167.055 60.9681Z" fill="url(#paint30_linear_1_268)"/>
<path d="M218.519 95.6657L206.329 74.5875H230.709L218.519 95.6657Z" fill="url(#paint31_linear_1_268)"/>
<path d="M226.11 102.403L240.342 77.7606L254.574 102.403H226.11Z" fill="url(#paint32_linear_1_268)"/>
<path d="M283.967 137.76L268.023 110.15H299.932L283.967 137.76Z" fill="url(#paint33_linear_1_268)"/>
<path d="M315.444 101.208L327.613 80.1713L339.763 101.208H315.444Z" fill="url(#paint34_linear_1_268)"/>
<path d="M349.436 92.3484L340.134 76.2359H358.739L349.436 92.3484Z" fill="url(#paint35_linear_1_268)"/>
<path d="M388.648 58.9901L393.062 51.3459L397.476 58.9901L388.648 58.9901Z" fill="url(#paint36_linear_1_268)"/>
<path d="M414.885 47.1632L412.018 42.2182H417.731L414.885 47.1632Z" fill="url(#paint37_linear_1_268)"/>
<path d="M457.706 19.162L458.51 17.7609L459.315 19.162H457.706Z" fill="url(#paint38_linear_1_268)"/>
<path d="M43.9967 7.08786L43.151 5.62496H44.8218L43.9967 7.08786Z" fill="url(#paint39_linear_1_268)"/>
<path d="M64.3758 19.5122L65.7991 17.0603L67.2223 19.5122H64.3758Z" fill="url(#paint40_linear_1_268)"/>
<path d="M109.445 46.8541L106.826 42.3624H112.044L109.445 46.8541Z" fill="url(#paint41_linear_1_268)"/>
<path d="M127.658 58.5162L131.247 52.3143L134.837 58.5162H127.658Z" fill="url(#paint42_linear_1_268)"/>
<path d="M174.894 90.1437L167.489 77.3485H182.278L174.894 90.1437Z" fill="url(#paint43_linear_1_268)"/>
<path d="M186.713 99.9514L196.717 82.6644L206.7 99.9514H186.713Z" fill="url(#paint44_linear_1_268)"/>
<path d="M240.342 136.483L225.491 110.789H255.193L240.342 136.483Z" fill="url(#paint45_linear_1_268)"/>
<path d="M245.829 141.345L262.165 113.118L278.481 141.345H245.829Z" fill="url(#paint46_linear_1_268)"/>
<path d="M291.042 140.439L305.79 114.931L320.538 140.439H291.042Z" fill="url(#paint47_linear_1_268)"/>
<path d="M327.613 133.804L315.072 112.129L340.134 112.129L327.613 133.804Z" fill="url(#paint48_linear_1_268)"/>
<path d="M364.453 98.1176L371.239 86.3526L378.046 98.1176H364.453Z" fill="url(#paint49_linear_1_268)"/>
<path d="M393.062 86.4144L388.895 79.2029H397.228L393.062 86.4144Z" fill="url(#paint50_linear_1_268)"/>
<path d="M435.429 57.1769L436.687 54.9722L437.966 57.1769H435.429Z" fill="url(#paint51_linear_1_268)"/>
<path d="M458.51 44.5671L457.912 43.5163H459.108L458.51 44.5671Z" fill="url(#paint52_linear_1_268)"/>
<path d="M0.35065 6.51094L0 5.91342H0.701299L0.35065 6.51094Z" fill="url(#paint53_linear_1_268)"/>
<path d="M21.658 18.9765L22.1737 18.1112L22.6687 18.9765H21.658Z" fill="url(#paint54_linear_1_268)"/>
<path d="M65.7991 45.2264L64.6233 43.166H66.9954L65.7991 45.2264Z" fill="url(#paint55_linear_1_268)"/>
<path d="M86.0751 57.3417L87.6221 54.6632L89.1691 57.3417H86.0751Z" fill="url(#paint56_linear_1_268)"/>
<path d="M131.247 85.0545L128.257 79.8828H134.259L131.247 85.0545Z" fill="url(#paint57_linear_1_268)"/>
<path d="M148.347 96.9226L153.071 88.7426L157.794 96.9226H148.347Z" fill="url(#paint58_linear_1_268)"/>
<path d="M196.717 131.002L186.63 113.53H206.803L196.717 131.002Z" fill="url(#paint59_linear_1_268)"/>
<path d="M205.174 139.635L218.519 116.538L231.885 139.635H205.174Z" fill="url(#paint60_linear_1_268)"/>
<path d="M262.165 176.249L245.561 147.527H278.749L262.165 176.249Z" fill="url(#paint61_linear_1_268)"/>
<path d="M268.497 178.619L283.967 151.833L299.458 178.619H268.497Z" fill="url(#paint62_linear_1_268)"/>
<path d="M305.79 173.838L291.29 148.742H320.291L305.79 173.838Z" fill="url(#paint63_linear_1_268)"/>
<path d="M339.804 137.492L349.436 120.844L359.048 137.492L339.804 137.492Z" fill="url(#paint64_linear_1_268)"/>
<path d="M371.239 127.046L364.576 115.508H377.922L371.239 127.046Z" fill="url(#paint65_linear_1_268)"/>
<path d="M412.843 95.3566L414.885 91.8539L416.927 95.3566H412.843Z" fill="url(#paint66_linear_1_268)"/>
<path d="M436.687 82.685L435.78 81.0779H437.616L436.687 82.685Z" fill="url(#paint67_linear_1_268)"/>
<path d="M22.1736 44.361L21.7405 43.6193H22.6068L22.1736 44.361Z" fill="url(#paint68_linear_1_268)"/>
<path d="M43.3779 56.806L43.9967 55.7346L44.5949 56.806H43.3779Z" fill="url(#paint69_linear_1_268)"/>
<path d="M87.6221 82.8498L86.5289 80.9748H88.7153L87.6221 82.8498Z" fill="url(#paint70_linear_1_268)"/>
<path d="M107.857 95.1094L109.445 92.369L111.013 95.1094H107.857Z" fill="url(#paint71_linear_1_268)"/>
<path d="M153.071 124.553L148.553 116.764H157.588L153.071 124.553Z" fill="url(#paint72_linear_1_268)"/>
<path d="M167.324 136.297L174.894 123.214L182.443 136.297H167.324Z" fill="url(#paint73_linear_1_268)"/>
<path d="M218.519 173.921L203.936 148.701H233.102L218.519 173.921Z" fill="url(#paint74_linear_1_268)"/>
<path d="M224.212 178.989L240.342 151.071L256.472 178.989H224.212Z" fill="url(#paint75_linear_1_268)"/>
<path d="M283.967 210.761L270.189 186.901H297.767L283.967 210.761Z" fill="url(#paint76_linear_1_268)"/>
<path d="M315.444 176.702L327.613 155.645L339.783 176.702H315.444Z" fill="url(#paint77_linear_1_268)"/>
<path d="M349.436 168.275L339.742 151.524H359.11L349.436 168.275Z" fill="url(#paint78_linear_1_268)"/>
<path d="M389.184 134.175L393.062 127.479L396.94 134.175H389.184Z" fill="url(#paint79_linear_1_268)"/>
<path d="M414.885 121.483L413.029 118.289H416.721L414.885 121.483Z" fill="url(#paint80_linear_1_268)"/>
<path d="M43.9966 82.1081L43.5429 81.3663H44.4298L43.9966 82.1081Z" fill="url(#paint81_linear_1_268)"/>
<path d="M65.2216 94.5324L65.7991 93.5228L66.3766 94.5324H65.2216Z" fill="url(#paint82_linear_1_268)"/>
<path d="M109.445 120.782L108.208 118.639H110.683L109.445 120.782Z" fill="url(#paint83_linear_1_268)"/>
<path d="M128.669 133.433L131.248 128.942L133.846 133.433H128.669Z" fill="url(#paint84_linear_1_268)"/>
<path d="M174.894 167.472L165.9 151.915H183.887L174.894 167.472Z" fill="url(#paint85_linear_1_268)"/>
<path d="M183.928 177.053L196.717 154.944L209.484 177.053H183.928Z" fill="url(#paint86_linear_1_268)"/>
<path d="M240.342 212.822L224.769 185.871H255.915L240.342 212.822Z" fill="url(#paint87_linear_1_268)"/>
<path d="M248.263 215.438L262.165 191.414L276.047 215.438H248.263Z" fill="url(#paint88_linear_1_268)"/>
<path d="M293.951 214.264L305.79 193.763L317.63 214.264L293.951 214.264Z" fill="url(#paint89_linear_1_268)"/>
<path d="M327.613 208.165L316.062 188.2H339.164L327.613 208.165Z" fill="url(#paint90_linear_1_268)"/>
<path d="M364.061 173.818L371.239 161.414L378.417 173.818H364.061Z" fill="url(#paint91_linear_1_268)"/>
<path d="M393.062 161.929L388.875 154.697H397.249L393.062 161.929Z" fill="url(#paint92_linear_1_268)"/>
<path d="M436.027 132.321L436.687 131.167L437.368 132.321H436.027Z" fill="url(#paint93_linear_1_268)"/>
<path d="M65.7991 119.731L65.4691 119.175H66.1291L65.7991 119.731Z" fill="url(#paint94_linear_1_268)"/>
<path d="M87.0652 132.259L87.6221 131.29L88.179 132.259H87.0652Z" fill="url(#paint95_linear_1_268)"/>
<path d="M131.247 160.775L128.071 155.274H134.445L131.247 160.775Z" fill="url(#paint96_linear_1_268)"/>
<path d="M146.511 173.467L153.071 162.115L159.65 173.467H146.511Z" fill="url(#paint97_linear_1_268)"/>
<path d="M196.717 210.679L183 186.943H210.413L196.717 210.679Z" fill="url(#paint98_linear_1_268)"/>
<path d="M203.441 216.139L218.519 190.033L233.618 216.139H203.441Z" fill="url(#paint99_linear_1_268)"/>
<path d="M262.165 246.51L250.098 225.638H274.232L262.165 246.51Z" fill="url(#paint100_linear_1_268)"/>
<path d="M273.881 251.001L283.967 233.55L294.074 251.001H273.881Z" fill="url(#paint101_linear_1_268)"/>
<path d="M305.79 244.696L295.291 226.544H316.289L305.79 244.696Z" fill="url(#paint102_linear_1_268)"/>
<path d="M339.268 213.296L349.436 195.699L359.585 213.296H339.268Z" fill="url(#paint103_linear_1_268)"/>
<path d="M371.239 204.147L363.194 190.198H379.304L371.239 204.147Z" fill="url(#paint104_linear_1_268)"/>
<path d="M412.224 171.222L414.885 166.627L417.525 171.222H412.224Z" fill="url(#paint105_linear_1_268)"/>
<path d="M436.687 158.179L435.759 156.572H437.636L436.687 158.179Z" fill="url(#paint106_linear_1_268)"/>
<path d="M43.8317 132.032L43.9967 131.764L44.1411 132.032H43.8317Z" fill="url(#paint107_linear_1_268)"/>
<path d="M87.6221 157.829L86.9827 156.737H88.2615L87.6221 157.829Z" fill="url(#paint108_linear_1_268)"/>
<path d="M107.671 170.706L109.445 167.657L111.198 170.706H107.671Z" fill="url(#paint109_linear_1_268)"/>
<path d="M153.071 203.921L145.232 190.322H160.929L153.071 203.921Z" fill="url(#paint110_linear_1_268)"/>
<path d="M163.219 214.161L174.894 193.969L186.568 214.161H163.219Z" fill="url(#paint111_linear_1_268)"/>
<path d="M218.519 249.209L204.142 224.298H232.916L218.519 249.209Z" fill="url(#paint112_linear_1_268)"/>
<path d="M227.595 252.547L240.342 230.48L253.089 252.547H227.595Z" fill="url(#paint113_linear_1_268)"/>
<path d="M316.743 251.455L327.613 232.643L338.484 251.455H316.743Z" fill="url(#paint114_linear_1_268)"/>
<path d="M349.436 245.273L338.442 226.276H360.41L349.436 245.273Z" fill="url(#paint115_linear_1_268)"/>
<path d="M386.028 211.482L393.062 199.326L400.096 211.482H386.028Z" fill="url(#paint116_linear_1_268)"/>
<path d="M414.885 199.47L410.883 192.547H418.886L414.885 199.47Z" fill="url(#paint117_linear_1_268)"/>
<path d="M458.057 169.944L458.51 169.161L458.985 169.944L458.057 169.944Z" fill="url(#paint118_linear_1_268)"/>
<path d="M480.334 157.128L480.313 157.087H480.354L480.334 157.128Z" fill="url(#paint119_linear_1_268)"/>
<path d="M0.206223 132.032L0.350625 131.764L0.494995 132.032H0.206223Z" fill="url(#paint120_linear_1_268)"/>
<path d="M43.9966 157.272L43.8523 157.025H44.1204L43.9966 157.272Z" fill="url(#paint121_linear_1_268)"/>
<path d="M65.4897 169.862L65.7991 169.326L66.1085 169.862H65.4897Z" fill="url(#paint122_linear_1_268)"/>
<path d="M109.445 197.451L107.176 193.557H111.693L109.445 197.451Z" fill="url(#paint123_linear_1_268)"/>
<path d="M126.235 210.329L131.248 201.654L136.28 210.329H126.235Z" fill="url(#paint124_linear_1_268)"/>
<path d="M174.894 246.613L162.744 225.596H187.022L174.894 246.613Z" fill="url(#paint125_linear_1_268)"/>
<path d="M183.165 253L196.717 229.552L210.248 253H183.165Z" fill="url(#paint126_linear_1_268)"/>
<path d="M359.564 251.929L371.239 231.695L382.934 251.929H359.564Z" fill="url(#paint127_linear_1_268)"/>
<path d="M393.062 243.625L383.512 227.08H402.612L393.062 243.625Z" fill="url(#paint128_linear_1_268)"/>
<path d="M433.531 209.257L436.687 203.797L439.864 209.257H433.531Z" fill="url(#paint129_linear_1_268)"/>
<path d="M458.51 196.112L457.438 194.237H459.604L458.51 196.112Z" fill="url(#paint130_linear_1_268)"/>
<path d="M0.350623 157.272L0.206222 157.025H0.494994L0.350623 157.272Z" fill="url(#paint131_linear_1_268)"/>
<path d="M22.0499 169.759L22.1737 169.553L22.2975 169.759H22.0499Z" fill="url(#paint132_linear_1_268)"/>
<path d="M65.7991 195.308L65.4072 194.628H66.2116L65.7991 195.308Z" fill="url(#paint133_linear_1_268)"/>
<path d="M86.5289 208.062L87.6221 206.166L88.7153 208.062H86.5289Z" fill="url(#paint134_linear_1_268)"/>
<path d="M131.247 238.886L125.802 229.47H136.693L131.247 238.886Z" fill="url(#paint135_linear_1_268)"/>
<path d="M144.077 250.363L153.071 234.806L162.064 250.363L144.077 250.363Z" fill="url(#paint136_linear_1_268)"/>
<path d="M405.83 250.404L414.885 234.724L423.94 250.404H405.83Z" fill="url(#paint137_linear_1_268)"/>
<path d="M436.687 238.659L431.448 229.573H441.947L436.687 238.659Z" fill="url(#paint138_linear_1_268)"/>
<path d="M479.715 207.794L480.333 206.723L480.952 207.794H479.715Z" fill="url(#paint139_linear_1_268)"/>
<path d="M502.156 194.917L502.094 194.814H502.198L502.156 194.917Z" fill="url(#paint140_linear_1_268)"/>
<path d="M22.1737 195.02L22.0292 194.772H22.318L22.1737 195.02Z" fill="url(#paint141_linear_1_268)"/>
<path d="M43.7697 207.547L43.9966 207.197L44.2029 207.547H43.7697Z" fill="url(#paint142_linear_1_268)"/>
<path d="M87.6221 234.044L86.3639 231.881H88.8597L87.6221 234.044Z" fill="url(#paint143_linear_1_268)"/>
<path d="M106.661 246.777L109.445 241.977L112.209 246.777H106.661Z" fill="url(#paint144_linear_1_268)"/>
<path d="M454.736 247.354L458.51 240.823L462.285 247.354H454.736Z" fill="url(#paint145_linear_1_268)"/>
<path d="M480.333 234.126L479.013 231.839H481.653L480.333 234.126Z" fill="url(#paint146_linear_1_268)"/>
<path d="M0.165016 207.547L0.35068 207.217L0.536312 207.547H0.165016Z" fill="url(#paint147_linear_1_268)"/>
<path d="M43.9966 232.87L43.7491 232.458H44.2235L43.9966 232.87Z" fill="url(#paint148_linear_1_268)"/>
<path d="M65.2628 245.479L65.7991 244.573L66.3354 245.479H65.2628Z" fill="url(#paint149_linear_1_268)"/>
<path d="M501.599 245.5L502.156 244.532L502.713 245.5H501.599Z" fill="url(#paint150_linear_1_268)"/>
<path d="M523.959 232.642L523.939 232.581H524L523.959 232.642Z" fill="url(#paint151_linear_1_268)"/>
<path d="M0.350632 232.828L0.144353 232.478H0.55688L0.350632 232.828Z" fill="url(#paint152_linear_1_268)"/>
<path d="M21.988 245.294L22.1737 244.964L22.3593 245.294H21.988Z" fill="url(#paint153_linear_1_268)"/>
<defs>
<linearGradient id="paint0_linear_1_268" x1="-10557.1" y1="4585.99" x2="-5368.02" y2="-7827.85" gradientUnits="userSpaceOnUse">
<stop/>
<stop offset="1" stop-color="#2D2D2D"/>
</linearGradient>
<linearGradient id="paint1_linear_1_268" x1="-10964.6" y1="4878.54" x2="-5711.47" y2="-7699.17" gradientUnits="userSpaceOnUse">
<stop/>
<stop offset="1" stop-color="#2D2D2D"/>
</linearGradient>
<linearGradient id="paint2_linear_1_268" x1="-12680" y1="5472.1" x2="-6805.09" y2="-8584.34" gradientUnits="userSpaceOnUse">
<stop/>
<stop offset="1" stop-color="#2D2D2D"/>
</linearGradient>
<linearGradient id="paint3_linear_1_268" x1="-10411.6" y1="4528.73" x2="-4969.28" y2="-8480.23" gradientUnits="userSpaceOnUse">
<stop/>
<stop offset="1" stop-color="#2D2D2D"/>
</linearGradient>
<linearGradient id="paint4_linear_1_268" x1="-9744.48" y1="4372.68" x2="-4772.34" y2="-7521.6" gradientUnits="userSpaceOnUse">
<stop/>
<stop offset="1" stop-color="#2D2D2D"/>
</linearGradient>
<linearGradient id="paint5_linear_1_268" x1="-10274" y1="4463.75" x2="-5601.1" y2="-6724.6" gradientUnits="userSpaceOnUse">
<stop/>
<stop offset="1" stop-color="#2D2D2D"/>
</linearGradient>
<linearGradient id="paint6_linear_1_268" x1="-13273.5" y1="5844.02" x2="-7282.7" y2="-8497.58" gradientUnits="userSpaceOnUse">
<stop/>
<stop offset="1" stop-color="#2D2D2D"/>
</linearGradient>
<linearGradient id="paint7_linear_1_268" x1="-16140.5" y1="6922.27" x2="-9063.24" y2="-10003.5" gradientUnits="userSpaceOnUse">
<stop/>
<stop offset="1" stop-color="#2D2D2D"/>
</linearGradient>
<linearGradient id="paint8_linear_1_268" x1="-12288.1" y1="5309.12" x2="-5466.06" y2="-11011.7" gradientUnits="userSpaceOnUse">
<stop/>
<stop offset="1" stop-color="#2D2D2D"/>
</linearGradient>
<linearGradient id="paint9_linear_1_268" x1="-10853.1" y1="4831.72" x2="-5000.6" y2="-9181.59" gradientUnits="userSpaceOnUse">
<stop/>
<stop offset="1" stop-color="#2D2D2D"/>
</linearGradient>
<linearGradient id="paint10_linear_1_268" x1="-9448.54" y1="4119.67" x2="-4899.42" y2="-6770.33" gradientUnits="userSpaceOnUse">
<stop/>
<stop offset="1" stop-color="#2D2D2D"/>
</linearGradient>
<linearGradient id="paint11_linear_1_268" x1="-8909.44" y1="4025.56" x2="-4684.03" y2="-6078.12" gradientUnits="userSpaceOnUse">
<stop/>
<stop offset="1" stop-color="#2D2D2D"/>
</linearGradient>
<linearGradient id="paint12_linear_1_268" x1="-10489" y1="4687.17" x2="-5798.37" y2="-6525.17" gradientUnits="userSpaceOnUse">
<stop/>
<stop offset="1" stop-color="#2D2D2D"/>
</linearGradient>
<linearGradient id="paint13_linear_1_268" x1="-12880.8" y1="5557.05" x2="-7329.17" y2="-7724.04" gradientUnits="userSpaceOnUse">
<stop/>
<stop offset="1" stop-color="#2D2D2D"/>
</linearGradient>
<linearGradient id="paint14_linear_1_268" x1="-19925.5" y1="8635.38" x2="-11440.8" y2="-11646.2" gradientUnits="userSpaceOnUse">
<stop/>
<stop offset="1" stop-color="#2D2D2D"/>
</linearGradient>
<linearGradient id="paint15_linear_1_268" x1="-27342" y1="11604.6" x2="-15989.6" y2="-15547.3" gradientUnits="userSpaceOnUse">
<stop/>
<stop offset="1" stop-color="#2D2D2D"/>
</linearGradient>
<linearGradient id="paint16_linear_1_268" x1="-21630.6" y1="9214.18" x2="-8839.24" y2="-21388.3" gradientUnits="userSpaceOnUse">
<stop/>
<stop offset="1" stop-color="#2D2D2D"/>
</linearGradient>
<linearGradient id="paint17_linear_1_268" x1="-15276.1" y1="6686.72" x2="-6557.06" y2="-14165.6" gradientUnits="userSpaceOnUse">
<stop/>
<stop offset="1" stop-color="#2D2D2D"/>
</linearGradient>
<linearGradient id="paint18_linear_1_268" x1="-11071.3" y1="4800.04" x2="-5426.13" y2="-8707.1" gradientUnits="userSpaceOnUse">
<stop/>
<stop offset="1" stop-color="#2D2D2D"/>
</linearGradient>
<linearGradient id="paint19_linear_1_268" x1="-9526.54" y1="4282.93" x2="-4761.78" y2="-7112.02" gradientUnits="userSpaceOnUse">
<stop/>
<stop offset="1" stop-color="#2D2D2D"/>
</linearGradient>
<linearGradient id="paint20_linear_1_268" x1="-8366.56" y1="3670.19" x2="-4617.77" y2="-5298.13" gradientUnits="userSpaceOnUse">
<stop/>
<stop offset="1" stop-color="#2D2D2D"/>
</linearGradient>
<linearGradient id="paint21_linear_1_268" x1="-8137.53" y1="3705.02" x2="-4527.27" y2="-4921.09" gradientUnits="userSpaceOnUse">
<stop/>
<stop offset="1" stop-color="#2D2D2D"/>
</linearGradient>
<linearGradient id="paint22_linear_1_268" x1="-9686.3" y1="4222.19" x2="-5573.1" y2="-5617.14" gradientUnits="userSpaceOnUse">
<stop/>
<stop offset="1" stop-color="#2D2D2D"/>
</linearGradient>
<linearGradient id="paint23_linear_1_268" x1="-15167.1" y1="6642.38" x2="-8790.98" y2="-8603.54" gradientUnits="userSpaceOnUse">
<stop/>
<stop offset="1" stop-color="#2D2D2D"/>
</linearGradient>
<linearGradient id="paint24_linear_1_268" x1="-20453.1" y1="8719.2" x2="-12106.5" y2="-11256.1" gradientUnits="userSpaceOnUse">
<stop/>
<stop offset="1" stop-color="#2D2D2D"/>
</linearGradient>
<linearGradient id="paint25_linear_1_268" x1="-42837.5" y1="18247" x2="-25597" y2="-22901.5" gradientUnits="userSpaceOnUse">
<stop/>
<stop offset="1" stop-color="#2D2D2D"/>
</linearGradient>
<linearGradient id="paint26_linear_1_268" x1="-75126.8" y1="31434.9" x2="-45743" y2="-39176.1" gradientUnits="userSpaceOnUse">
<stop/>
<stop offset="1" stop-color="#2D2D2D"/>
</linearGradient>
<linearGradient id="paint27_linear_1_268" x1="-41111.8" y1="17311.4" x2="-15156.3" y2="-44952.4" gradientUnits="userSpaceOnUse">
<stop/>
<stop offset="1" stop-color="#2D2D2D"/>
</linearGradient>
<linearGradient id="paint28_linear_1_268" x1="-30492.2" y1="13086" x2="-11979.2" y2="-31062.2" gradientUnits="userSpaceOnUse">
<stop/>
<stop offset="1" stop-color="#2D2D2D"/>
</linearGradient>
<linearGradient id="paint29_linear_1_268" x1="-17061.9" y1="7288.58" x2="-7877.71" y2="-14733.4" gradientUnits="userSpaceOnUse">
<stop/>
<stop offset="1" stop-color="#2D2D2D"/>
</linearGradient>
<linearGradient id="paint30_linear_1_268" x1="-13381.1" y1="5900.33" x2="-6345.53" y2="-10908.1" gradientUnits="userSpaceOnUse">
<stop/>
<stop offset="1" stop-color="#2D2D2D"/>
</linearGradient>
<linearGradient id="paint31_linear_1_268" x1="-9563.13" y1="4168.94" x2="-5050.96" y2="-6628.93" gradientUnits="userSpaceOnUse">
<stop/>
<stop offset="1" stop-color="#2D2D2D"/>
</linearGradient>
<linearGradient id="paint32_linear_1_268" x1="-8286.3" y1="3766.77" x2="-4417.59" y2="-5478.29" gradientUnits="userSpaceOnUse">
<stop/>
<stop offset="1" stop-color="#2D2D2D"/>
</linearGradient>
<linearGradient id="paint33_linear_1_268" x1="-8246.35" y1="3621.65" x2="-4796.45" y2="-4627.39" gradientUnits="userSpaceOnUse">
<stop/>
<stop offset="1" stop-color="#2D2D2D"/>
</linearGradient>
<linearGradient id="paint34_linear_1_268" x1="-10857.7" y1="4838.97" x2="-6332.07" y2="-5984.85" gradientUnits="userSpaceOnUse">
<stop/>
<stop offset="1" stop-color="#2D2D2D"/>
</linearGradient>
<linearGradient id="paint35_linear_1_268" x1="-14680.7" y1="6318.27" x2="-8760.57" y2="-7824.76" gradientUnits="userSpaceOnUse">
<stop/>
<stop offset="1" stop-color="#2D2D2D"/>
</linearGradient>
<linearGradient id="paint36_linear_1_268" x1="-31495.1" y1="13481.1" x2="-19019.9" y2="-16326.4" gradientUnits="userSpaceOnUse">
<stop/>
<stop offset="1" stop-color="#2D2D2D"/>
</linearGradient>
<linearGradient id="paint37_linear_1_268" x1="-49618.4" y1="20929.6" x2="-30350.2" y2="-25130" gradientUnits="userSpaceOnUse">
<stop/>
<stop offset="1" stop-color="#2D2D2D"/>
</linearGradient>
<linearGradient id="paint38_linear_1_268" x1="-178707" y1="75523.7" x2="-109977" y2="-87761.1" gradientUnits="userSpaceOnUse">
<stop/>
<stop offset="1" stop-color="#2D2D2D"/>
</linearGradient>
<linearGradient id="paint39_linear_1_268" x1="-95028.5" y1="40392.5" x2="-28549.7" y2="-116687" gradientUnits="userSpaceOnUse">
<stop/>
<stop offset="1" stop-color="#2D2D2D"/>
</linearGradient>
<linearGradient id="paint40_linear_1_268" x1="-60022.2" y1="25289" x2="-21481.8" y2="-67278.7" gradientUnits="userSpaceOnUse">
<stop/>
<stop offset="1" stop-color="#2D2D2D"/>
</linearGradient>
<linearGradient id="paint41_linear_1_268" x1="-36838.6" y1="15499" x2="-15828.4" y2="-35004.4" gradientUnits="userSpaceOnUse">
<stop/>
<stop offset="1" stop-color="#2D2D2D"/>
</linearGradient>
<linearGradient id="paint42_linear_1_268" x1="-27860.8" y1="11933.9" x2="-12541.7" y2="-24748.4" gradientUnits="userSpaceOnUse">
<stop/>
<stop offset="1" stop-color="#2D2D2D"/>
</linearGradient>
<linearGradient id="paint43_linear_1_268" x1="-14955.5" y1="6426.62" x2="-7512.51" y2="-11372" gradientUnits="userSpaceOnUse">
<stop/>
<stop offset="1" stop-color="#2D2D2D"/>
</linearGradient>
<linearGradient id="paint44_linear_1_268" x1="-11314.4" y1="5029.19" x2="-5808.42" y2="-8141.46" gradientUnits="userSpaceOnUse">
<stop/>
<stop offset="1" stop-color="#2D2D2D"/>
</linearGradient>
<linearGradient id="paint45_linear_1_268" x1="-8426.86" y1="3696.26" x2="-4721.74" y2="-5165.58" gradientUnits="userSpaceOnUse">
<stop/>
<stop offset="1" stop-color="#2D2D2D"/>
</linearGradient>
<linearGradient id="paint46_linear_1_268" x1="-7737.99" y1="3532.57" x2="-4368.81" y2="-4530.39" gradientUnits="userSpaceOnUse">
<stop/>
<stop offset="1" stop-color="#2D2D2D"/>
</linearGradient>
<linearGradient id="paint47_linear_1_268" x1="-9052.33" y1="4083.21" x2="-5321.43" y2="-4842.45" gradientUnits="userSpaceOnUse">
<stop/>
<stop offset="1" stop-color="#2D2D2D"/>
</linearGradient>
<linearGradient id="paint48_linear_1_268" x1="-11071.2" y1="4801.17" x2="-6679.56" y2="-5704.35" gradientUnits="userSpaceOnUse">
<stop/>
<stop offset="1" stop-color="#2D2D2D"/>
</linearGradient>
<linearGradient id="paint49_linear_1_268" x1="-20687.4" y1="8954.05" x2="-12587.2" y2="-10408.9" gradientUnits="userSpaceOnUse">
<stop/>
<stop offset="1" stop-color="#2D2D2D"/>
</linearGradient>
<linearGradient id="paint50_linear_1_268" x1="-34569" y1="14633.3" x2="-21355.2" y2="-16958" gradientUnits="userSpaceOnUse">
<stop/>
<stop offset="1" stop-color="#2D2D2D"/>
</linearGradient>
<linearGradient id="paint51_linear_1_268" x1="-115383" y1="48763.2" x2="-71842.7" y2="-54899.3" gradientUnits="userSpaceOnUse">
<stop/>
<stop offset="1" stop-color="#2D2D2D"/>
</linearGradient>
<linearGradient id="paint52_linear_1_268" x1="-245078" y1="104219" x2="-152031" y2="-114939" gradientUnits="userSpaceOnUse">
<stop/>
<stop offset="1" stop-color="#2D2D2D"/>
</linearGradient>
<linearGradient id="paint53_linear_1_268" x1="-213232" y1="87984.5" x2="-58233.4" y2="-288389" gradientUnits="userSpaceOnUse">
<stop/>
<stop offset="1" stop-color="#2D2D2D"/>
</linearGradient>
<linearGradient id="paint54_linear_1_268" x1="-157637" y1="65532.2" x2="-49504.6" y2="-195743" gradientUnits="userSpaceOnUse">
<stop/>
<stop offset="1" stop-color="#2D2D2D"/>
</linearGradient>
<linearGradient id="paint55_linear_1_268" x1="-74979.2" y1="31655.8" x2="-28429.7" y2="-79216.5" gradientUnits="userSpaceOnUse">
<stop/>
<stop offset="1" stop-color="#2D2D2D"/>
</linearGradient>
<linearGradient id="paint56_linear_1_268" x1="-60747.7" y1="25718.3" x2="-25157.7" y2="-59334.2" gradientUnits="userSpaceOnUse">
<stop/>
<stop offset="1" stop-color="#2D2D2D"/>
</linearGradient>
<linearGradient id="paint57_linear_1_268" x1="-35020.3" y1="14757.5" x2="-16725.2" y2="-29172.8" gradientUnits="userSpaceOnUse">
<stop/>
<stop offset="1" stop-color="#2D2D2D"/>
</linearGradient>
<linearGradient id="paint58_linear_1_268" x1="-22935.9" y1="9897.93" x2="-11279.3" y2="-17953.2" gradientUnits="userSpaceOnUse">
<stop/>
<stop offset="1" stop-color="#2D2D2D"/>
</linearGradient>
<linearGradient id="paint59_linear_1_268" x1="-11806.7" y1="5115.88" x2="-6345.54" y2="-7928.92" gradientUnits="userSpaceOnUse">
<stop/>
<stop offset="1" stop-color="#2D2D2D"/>
</linearGradient>
<linearGradient id="paint60_linear_1_268" x1="-9047.76" y1="4080.82" x2="-4928.39" y2="-5775.31" gradientUnits="userSpaceOnUse">
<stop/>
<stop offset="1" stop-color="#2D2D2D"/>
</linearGradient>
<linearGradient id="paint61_linear_1_268" x1="-8066.74" y1="3547.35" x2="-4749.47" y2="-4383.13" gradientUnits="userSpaceOnUse">
<stop/>
<stop offset="1" stop-color="#2D2D2D"/>
</linearGradient>
<linearGradient id="paint62_linear_1_268" x1="-8758.06" y1="3961.7" x2="-5202.85" y2="-4540.15" gradientUnits="userSpaceOnUse">
<stop/>
<stop offset="1" stop-color="#2D2D2D"/>
</linearGradient>
<linearGradient id="paint63_linear_1_268" x1="-9709.49" y1="4233.88" x2="-5912.94" y2="-4843.02" gradientUnits="userSpaceOnUse">
<stop/>
<stop offset="1" stop-color="#2D2D2D"/>
</linearGradient>
<linearGradient id="paint64_linear_1_268" x1="-14760.2" y1="6471.16" x2="-9040.28" y2="-7208.81" gradientUnits="userSpaceOnUse">
<stop/>
<stop offset="1" stop-color="#2D2D2D"/>
</linearGradient>
<linearGradient id="paint65_linear_1_268" x1="-21916.3" y1="9331.67" x2="-13669.9" y2="-10401.2" gradientUnits="userSpaceOnUse">
<stop/>
<stop offset="1" stop-color="#2D2D2D"/>
</linearGradient>
<linearGradient id="paint66_linear_1_268" x1="-73683.7" y1="30843" x2="-46881.6" y2="-33810.9" gradientUnits="userSpaceOnUse">
<stop/>
<stop offset="1" stop-color="#2D2D2D"/>
</linearGradient>
<linearGradient id="paint67_linear_1_268" x1="-162937" y1="69120.2" x2="-102388" y2="-73972.4" gradientUnits="userSpaceOnUse">
<stop/>
<stop offset="1" stop-color="#2D2D2D"/>
</linearGradient>
<linearGradient id="paint68_linear_1_268" x1="-193429" y1="80219.1" x2="-67066.1" y2="-225106" gradientUnits="userSpaceOnUse">
<stop/>
<stop offset="1" stop-color="#2D2D2D"/>
</linearGradient>
<linearGradient id="paint69_linear_1_268" x1="-141581" y1="60548.5" x2="-50160.1" y2="-154286" gradientUnits="userSpaceOnUse">
<stop/>
<stop offset="1" stop-color="#2D2D2D"/>
</linearGradient>
<linearGradient id="paint70_linear_1_268" x1="-90709.6" y1="37773.4" x2="-40673" y2="-82942.1" gradientUnits="userSpaceOnUse">
<stop/>
<stop offset="1" stop-color="#2D2D2D"/>
</linearGradient>
<linearGradient id="paint71_linear_1_268" x1="-65054.8" y1="27603.5" x2="-30092.4" y2="-55697.9" gradientUnits="userSpaceOnUse">
<stop/>
<stop offset="1" stop-color="#2D2D2D"/>
</linearGradient>
<linearGradient id="paint72_linear_1_268" x1="-25195" y1="10671.1" x2="-13043.4" y2="-18492.4" gradientUnits="userSpaceOnUse">
<stop/>
<stop offset="1" stop-color="#2D2D2D"/>
</linearGradient>
<linearGradient id="paint73_linear_1_268" x1="-15389.9" y1="6736.43" x2="-8108.97" y2="-10670.8" gradientUnits="userSpaceOnUse">
<stop/>
<stop offset="1" stop-color="#2D2D2D"/>
</linearGradient>
<linearGradient id="paint74_linear_1_268" x1="-8754.74" y1="3831.68" x2="-4981.85" y2="-5195.21" gradientUnits="userSpaceOnUse">
<stop/>
<stop offset="1" stop-color="#2D2D2D"/>
</linearGradient>
<linearGradient id="paint75_linear_1_268" x1="-7978.34" y1="3636.79" x2="-4565.45" y2="-4522.08" gradientUnits="userSpaceOnUse">
<stop/>
<stop offset="1" stop-color="#2D2D2D"/>
</linearGradient>
<linearGradient id="paint76_linear_1_268" x1="-10394.5" y1="4519.56" x2="-6402.81" y2="-5025.7" gradientUnits="userSpaceOnUse">
<stop/>
<stop offset="1" stop-color="#2D2D2D"/>
</linearGradient>
<linearGradient id="paint77_linear_1_268" x1="-11786.4" y1="5228.1" x2="-7264.02" y2="-5586.5" gradientUnits="userSpaceOnUse">
<stop/>
<stop offset="1" stop-color="#2D2D2D"/>
</linearGradient>
<linearGradient id="paint78_linear_1_268" x1="-15296.5" y1="6567.22" x2="-9614.97" y2="-7023.88" gradientUnits="userSpaceOnUse">
<stop/>
<stop offset="1" stop-color="#2D2D2D"/>
</linearGradient>
<linearGradient id="paint79_linear_1_268" x1="-38961.4" y1="16558.7" x2="-24789.3" y2="-17399.8" gradientUnits="userSpaceOnUse">
<stop/>
<stop offset="1" stop-color="#2D2D2D"/>
</linearGradient>
<linearGradient id="paint80_linear_1_268" x1="-83126.7" y1="34926.7" x2="-53311.6" y2="-36386.3" gradientUnits="userSpaceOnUse">
<stop/>
<stop offset="1" stop-color="#2D2D2D"/>
</linearGradient>
<linearGradient id="paint81_linear_1_268" x1="-214229" y1="86767.2" x2="-93013.3" y2="-213104" gradientUnits="userSpaceOnUse">
<stop/>
<stop offset="1" stop-color="#2D2D2D"/>
</linearGradient>
<linearGradient id="paint82_linear_1_268" x1="-165894" y1="70383.7" x2="-69943.7" y2="-156726" gradientUnits="userSpaceOnUse">
<stop/>
<stop offset="1" stop-color="#2D2D2D"/>
</linearGradient>
<linearGradient id="paint83_linear_1_268" x1="-86591" y1="36408.8" x2="-42118.4" y2="-69871" gradientUnits="userSpaceOnUse">
<stop/>
<stop offset="1" stop-color="#2D2D2D"/>
</linearGradient>
<linearGradient id="paint84_linear_1_268" x1="-43040.1" y1="18349.1" x2="-21726.9" y2="-32475.8" gradientUnits="userSpaceOnUse">
<stop/>
<stop offset="1" stop-color="#2D2D2D"/>
</linearGradient>
<linearGradient id="paint85_linear_1_268" x1="-13544.9" y1="5835.25" x2="-7427.32" y2="-8798.59" gradientUnits="userSpaceOnUse">
<stop/>
<stop offset="1" stop-color="#2D2D2D"/>
</linearGradient>
<linearGradient id="paint86_linear_1_268" x1="-9658.11" y1="4337.76" x2="-5351.35" y2="-5962.14" gradientUnits="userSpaceOnUse">
<stop/>
<stop offset="1" stop-color="#2D2D2D"/>
</linearGradient>
<linearGradient id="paint87_linear_1_268" x1="-8761.78" y1="3837.22" x2="-5227.37" y2="-4613.56" gradientUnits="userSpaceOnUse">
<stop/>
<stop offset="1" stop-color="#2D2D2D"/>
</linearGradient>
<linearGradient id="paint88_linear_1_268" x1="-9982.51" y1="4471.36" x2="-6022.19" y2="-5004.32" gradientUnits="userSpaceOnUse">
<stop/>
<stop offset="1" stop-color="#2D2D2D"/>
</linearGradient>
<linearGradient id="paint89_linear_1_268" x1="-12319.5" y1="5454.93" x2="-7669.04" y2="-5657.99" gradientUnits="userSpaceOnUse">
<stop/>
<stop offset="1" stop-color="#2D2D2D"/>
</linearGradient>
<linearGradient id="paint90_linear_1_268" x1="-13022.7" y1="5612.53" x2="-8260.82" y2="-5786.45" gradientUnits="userSpaceOnUse">
<stop/>
<stop offset="1" stop-color="#2D2D2D"/>
</linearGradient>
<linearGradient id="paint91_linear_1_268" x1="-21193.3" y1="9149.8" x2="-13534.4" y2="-9190.29" gradientUnits="userSpaceOnUse">
<stop/>
<stop offset="1" stop-color="#2D2D2D"/>
</linearGradient>
<linearGradient id="paint92_linear_1_268" x1="-37202.5" y1="15701.6" x2="-24074" y2="-15750.1" gradientUnits="userSpaceOnUse">
<stop/>
<stop offset="1" stop-color="#2D2D2D"/>
</linearGradient>
<linearGradient id="paint93_linear_1_268" x1="-237915" y1="99265.5" x2="-156098" y2="-97421.6" gradientUnits="userSpaceOnUse">
<stop/>
<stop offset="1" stop-color="#2D2D2D"/>
</linearGradient>
<linearGradient id="paint94_linear_1_268" x1="-313158" y1="127749" x2="-149671" y2="-273575" gradientUnits="userSpaceOnUse">
<stop/>
<stop offset="1" stop-color="#2D2D2D"/>
</linearGradient>
<linearGradient id="paint95_linear_1_268" x1="-189309" y1="79854.3" x2="-90051.3" y2="-156341" gradientUnits="userSpaceOnUse">
<stop/>
<stop offset="1" stop-color="#2D2D2D"/>
</linearGradient>
<linearGradient id="paint96_linear_1_268" x1="-36485.7" y1="15394.5" x2="-19247" y2="-25925.7" gradientUnits="userSpaceOnUse">
<stop/>
<stop offset="1" stop-color="#2D2D2D"/>
</linearGradient>
<linearGradient id="paint97_linear_1_268" x1="-18163.1" y1="7885.1" x2="-9793.71" y2="-12155.4" gradientUnits="userSpaceOnUse">
<stop/>
<stop offset="1" stop-color="#2D2D2D"/>
</linearGradient>
<linearGradient id="paint98_linear_1_268" x1="-9486.58" y1="4143.18" x2="-5468.75" y2="-5456.9" gradientUnits="userSpaceOnUse">
<stop/>
<stop offset="1" stop-color="#2D2D2D"/>
</linearGradient>
<linearGradient id="paint99_linear_1_268" x1="-8718.58" y1="3944.76" x2="-5071.25" y2="-4777.72" gradientUnits="userSpaceOnUse">
<stop/>
<stop offset="1" stop-color="#2D2D2D"/>
</linearGradient>
<linearGradient id="paint100_linear_1_268" x1="-12102.7" y1="5232.34" x2="-7542.41" y2="-5676.51" gradientUnits="userSpaceOnUse">
<stop/>
<stop offset="1" stop-color="#2D2D2D"/>
</linearGradient>
<linearGradient id="paint101_linear_1_268" x1="-14779.6" y1="6473.08" x2="-9332.7" y2="-6566.5" gradientUnits="userSpaceOnUse">
<stop/>
<stop offset="1" stop-color="#2D2D2D"/>
</linearGradient>
<linearGradient id="paint102_linear_1_268" x1="-14566.7" y1="6259.39" x2="-9327.19" y2="-6279.96" gradientUnits="userSpaceOnUse">
<stop/>
<stop offset="1" stop-color="#2D2D2D"/>
</linearGradient>
<linearGradient id="paint103_linear_1_268" x1="-15067.1" y1="6606.77" x2="-9645.31" y2="-6345.2" gradientUnits="userSpaceOnUse">
<stop/>
<stop offset="1" stop-color="#2D2D2D"/>
</linearGradient>
<linearGradient id="paint104_linear_1_268" x1="-19520.4" y1="8342.84" x2="-12682.3" y2="-7995.37" gradientUnits="userSpaceOnUse">
<stop/>
<stop offset="1" stop-color="#2D2D2D"/>
</linearGradient>
<linearGradient id="paint105_linear_1_268" x1="-60346.9" y1="25580.6" x2="-39558.5" y2="-24039.9" gradientUnits="userSpaceOnUse">
<stop/>
<stop offset="1" stop-color="#2D2D2D"/>
</linearGradient>
<linearGradient id="paint106_linear_1_268" x1="-175003" y1="72597.1" x2="-116787" y2="-68071.7" gradientUnits="userSpaceOnUse">
<stop/>
<stop offset="1" stop-color="#2D2D2D"/>
</linearGradient>
<linearGradient id="paint107_linear_1_268" x1="-637224" y1="266949" x2="-284035" y2="-577126" gradientUnits="userSpaceOnUse">
<stop/>
<stop offset="1" stop-color="#2D2D2D"/>
</linearGradient>
<linearGradient id="paint108_linear_1_268" x1="-173830" y1="71921.4" x2="-88607.1" y2="-134560" gradientUnits="userSpaceOnUse">
<stop/>
<stop offset="1" stop-color="#2D2D2D"/>
</linearGradient>
<linearGradient id="paint109_linear_1_268" x1="-64930" y1="27432" x2="-33732.9" y2="-47223.1" gradientUnits="userSpaceOnUse">
<stop/>
<stop offset="1" stop-color="#2D2D2D"/>
</linearGradient>
<linearGradient id="paint110_linear_1_268" x1="-15824" y1="6799.42" x2="-8805.33" y2="-9962.41" gradientUnits="userSpaceOnUse">
<stop/>
<stop offset="1" stop-color="#2D2D2D"/>
</linearGradient>
<linearGradient id="paint111_linear_1_268" x1="-10819" y1="4821.53" x2="-6105.97" y2="-6453.86" gradientUnits="userSpaceOnUse">
<stop/>
<stop offset="1" stop-color="#2D2D2D"/>
</linearGradient>
<linearGradient id="paint112_linear_1_268" x1="-9659.54" y1="4214.85" x2="-5832.01" y2="-4932.12" gradientUnits="userSpaceOnUse">
<stop/>
<stop offset="1" stop-color="#2D2D2D"/>
</linearGradient>
<linearGradient id="paint113_linear_1_268" x1="-11091.1" y1="4939.44" x2="-6772.08" y2="-5383.64" gradientUnits="userSpaceOnUse">
<stop/>
<stop offset="1" stop-color="#2D2D2D"/>
</linearGradient>
<linearGradient id="paint114_linear_1_268" x1="-14289.8" y1="6275.79" x2="-9226.58" y2="-5830.3" gradientUnits="userSpaceOnUse">
<stop/>
<stop offset="1" stop-color="#2D2D2D"/>
</linearGradient>
<linearGradient id="paint115_linear_1_268" x1="-14513.4" y1="6239" x2="-9503.94" y2="-5745.19" gradientUnits="userSpaceOnUse">
<stop/>
<stop offset="1" stop-color="#2D2D2D"/>
</linearGradient>
<linearGradient id="paint116_linear_1_268" x1="-22921" y1="9873.31" x2="-15101.6" y2="-8847.11" gradientUnits="userSpaceOnUse">
<stop/>
<stop offset="1" stop-color="#2D2D2D"/>
</linearGradient>
<linearGradient id="paint117_linear_1_268" x1="-41118.4" y1="17365.7" x2="-27366.4" y2="-15525.7" gradientUnits="userSpaceOnUse">
<stop/>
<stop offset="1" stop-color="#2D2D2D"/>
</linearGradient>
<linearGradient id="paint118_linear_1_268" x1="-370606" y1="151401" x2="-254132" y2="-134272" gradientUnits="userSpaceOnUse">
<stop/>
<stop offset="1" stop-color="#2D2D2D"/>
</linearGradient>
<linearGradient id="paint119_linear_1_268" x1="-1.53532e+06" y1="741543" x2="-374320" y2="-1.66306e+06" gradientUnits="userSpaceOnUse">
<stop/>
<stop offset="1" stop-color="#2D2D2D"/>
</linearGradient>
<linearGradient id="paint120_linear_1_268" x1="-603648" y1="270945" x2="-201123" y2="-626874" gradientUnits="userSpaceOnUse">
<stop/>
<stop offset="1" stop-color="#2D2D2D"/>
</linearGradient>
<linearGradient id="paint121_linear_1_268" x1="-725827" y1="323665" x2="-295078" y2="-642825" gradientUnits="userSpaceOnUse">
<stop/>
<stop offset="1" stop-color="#2D2D2D"/>
</linearGradient>
<linearGradient id="paint122_linear_1_268" x1="-350496" y1="146968" x2="-172285" y2="-278931" gradientUnits="userSpaceOnUse">
<stop/>
<stop offset="1" stop-color="#2D2D2D"/>
</linearGradient>
<linearGradient id="paint123_linear_1_268" x1="-52674.5" y1="22120.7" x2="-28371.9" y2="-36201" gradientUnits="userSpaceOnUse">
<stop/>
<stop offset="1" stop-color="#2D2D2D"/>
</linearGradient>
<linearGradient id="paint124_linear_1_268" x1="-24372.8" y1="10472.2" x2="-13429.8" y2="-15746.4" gradientUnits="userSpaceOnUse">
<stop/>
<stop offset="1" stop-color="#2D2D2D"/>
</linearGradient>
<linearGradient id="paint125_linear_1_268" x1="-10931.1" y1="4746.6" x2="-6395.52" y2="-6093.41" gradientUnits="userSpaceOnUse">
<stop/>
<stop offset="1" stop-color="#2D2D2D"/>
</linearGradient>
<linearGradient id="paint126_linear_1_268" x1="-9928.37" y1="4454.19" x2="-5862.18" y2="-5262.56" gradientUnits="userSpaceOnUse">
<stop/>
<stop offset="1" stop-color="#2D2D2D"/>
</linearGradient>
<linearGradient id="paint127_linear_1_268" x1="-13824.1" y1="6084.5" x2="-9111.73" y2="-5176.29" gradientUnits="userSpaceOnUse">
<stop/>
<stop offset="1" stop-color="#2D2D2D"/>
</linearGradient>
<linearGradient id="paint128_linear_1_268" x1="-17376.2" y1="7448.2" x2="-11607.9" y2="-6328.68" gradientUnits="userSpaceOnUse">
<stop/>
<stop offset="1" stop-color="#2D2D2D"/>
</linearGradient>
<linearGradient id="paint129_linear_1_268" x1="-53592.3" y1="22634" x2="-36248.6" y2="-18980.6" gradientUnits="userSpaceOnUse">
<stop/>
<stop offset="1" stop-color="#2D2D2D"/>
</linearGradient>
<linearGradient id="paint130_linear_1_268" x1="-158317" y1="66418.5" x2="-107466" y2="-55105.6" gradientUnits="userSpaceOnUse">
<stop/>
<stop offset="1" stop-color="#2D2D2D"/>
</linearGradient>
<linearGradient id="paint131_linear_1_268" x1="-678973" y1="281155" x2="-299153" y2="-636617" gradientUnits="userSpaceOnUse">
<stop/>
<stop offset="1" stop-color="#2D2D2D"/>
</linearGradient>
<linearGradient id="paint132_linear_1_268" x1="-852862" y1="343448" x2="-421387" y2="-728930" gradientUnits="userSpaceOnUse">
<stop/>
<stop offset="1" stop-color="#2D2D2D"/>
</linearGradient>
<linearGradient id="paint133_linear_1_268" x1="-285072" y1="116639" x2="-150734" y2="-212181" gradientUnits="userSpaceOnUse">
<stop/>
<stop offset="1" stop-color="#2D2D2D"/>
</linearGradient>
<linearGradient id="paint134_linear_1_268" x1="-107084" y1="45174.8" x2="-56563.9" y2="-75382.2" gradientUnits="userSpaceOnUse">
<stop/>
<stop offset="1" stop-color="#2D2D2D"/>
</linearGradient>
<linearGradient id="paint135_linear_1_268" x1="-23365.6" y1="9936.96" x2="-13261.7" y2="-14240.8" gradientUnits="userSpaceOnUse">
<stop/>
<stop offset="1" stop-color="#2D2D2D"/>
</linearGradient>
<linearGradient id="paint136_linear_1_268" x1="-14422.8" y1="6328.77" x2="-8305.08" y2="-8305.56" gradientUnits="userSpaceOnUse">
<stop/>
<stop offset="1" stop-color="#2D2D2D"/>
</linearGradient>
<linearGradient id="paint137_linear_1_268" x1="-18681.5" y1="8117.61" x2="-12599.4" y2="-6416.69" gradientUnits="userSpaceOnUse">
<stop/>
<stop offset="1" stop-color="#2D2D2D"/>
</linearGradient>
<linearGradient id="paint138_linear_1_268" x1="-33004.9" y1="13979.6" x2="-22520.3" y2="-11083.9" gradientUnits="userSpaceOnUse">
<stop/>
<stop offset="1" stop-color="#2D2D2D"/>
</linearGradient>
<linearGradient id="paint139_linear_1_268" x1="-285288" y1="119677" x2="-196310" y2="-92961.1" gradientUnits="userSpaceOnUse">
<stop/>
<stop offset="1" stop-color="#2D2D2D"/>
</linearGradient>
<linearGradient id="paint140_linear_1_268" x1="-3.04549e+06" y1="1.47064e+06" x2="-2.00574e+06" y2="-682833" gradientUnits="userSpaceOnUse">
<stop/>
<stop offset="1" stop-color="#2D2D2D"/>
</linearGradient>
<linearGradient id="paint141_linear_1_268" x1="-734124" y1="303979" x2="-358493" y2="-603672" gradientUnits="userSpaceOnUse">
<stop/>
<stop offset="1" stop-color="#2D2D2D"/>
</linearGradient>
<linearGradient id="paint142_linear_1_268" x1="-545022" y1="213315" x2="-304015" y2="-403295" gradientUnits="userSpaceOnUse">
<stop/>
<stop offset="1" stop-color="#2D2D2D"/>
</linearGradient>
<linearGradient id="paint143_linear_1_268" x1="-96950" y1="40791.5" x2="-52755" y2="-64690.9" gradientUnits="userSpaceOnUse">
<stop/>
<stop offset="1" stop-color="#2D2D2D"/>
</linearGradient>
<linearGradient id="paint144_linear_1_268" x1="-45225.9" y1="19213.9" x2="-25382.6" y2="-28236.1" gradientUnits="userSpaceOnUse">
<stop/>
<stop offset="1" stop-color="#2D2D2D"/>
</linearGradient>
<linearGradient id="paint145_linear_1_268" x1="-47126.9" y1="20007" x2="-32544.4" y2="-14864.2" gradientUnits="userSpaceOnUse">
<stop/>
<stop offset="1" stop-color="#2D2D2D"/>
</linearGradient>
<linearGradient id="paint146_linear_1_268" x1="-136552" y1="57348" x2="-94829.7" y2="-42298.4" gradientUnits="userSpaceOnUse">
<stop/>
<stop offset="1" stop-color="#2D2D2D"/>
</linearGradient>
<linearGradient id="paint147_linear_1_268" x1="-544403" y1="233955" x2="-243977" y2="-466050" gradientUnits="userSpaceOnUse">
<stop/>
<stop offset="1" stop-color="#2D2D2D"/>
</linearGradient>
<linearGradient id="paint148_linear_1_268" x1="-482447" y1="202730" x2="-249315" y2="-352548" gradientUnits="userSpaceOnUse">
<stop/>
<stop offset="1" stop-color="#2D2D2D"/>
</linearGradient>
<linearGradient id="paint149_linear_1_268" x1="-228583" y1="93683" x2="-127591" y2="-153516" gradientUnits="userSpaceOnUse">
<stop/>
<stop offset="1" stop-color="#2D2D2D"/>
</linearGradient>
<linearGradient id="paint150_linear_1_268" x1="-332417" y1="139998" x2="-233065" y2="-96419.8" gradientUnits="userSpaceOnUse">
<stop/>
<stop offset="1" stop-color="#2D2D2D"/>
</linearGradient>
<linearGradient id="paint151_linear_1_268" x1="-1.54073e+06" y1="744073" x2="-375772" y2="-1.66873e+06" gradientUnits="userSpaceOnUse">
<stop/>
<stop offset="1" stop-color="#2D2D2D"/>
</linearGradient>
<linearGradient id="paint152_linear_1_268" x1="-536607" y1="220401" x2="-271961" y2="-424447" gradientUnits="userSpaceOnUse">
<stop/>
<stop offset="1" stop-color="#2D2D2D"/>
</linearGradient>
<linearGradient id="paint153_linear_1_268" x1="-350.505" y1="-127.034" x2="256.861" y2="481.005" gradientUnits="userSpaceOnUse">
<stop/>
<stop offset="1" stop-color="#2D2D2D"/>
</linearGradient>
</defs>
</svg>
